<?xml version="1.0" encoding="UTF-8" standalone="no"?>
<svg
   xmlns:dc="http://purl.org/dc/elements/1.1/"
   xmlns:cc="http://creativecommons.org/ns#"
   xmlns:rdf="http://www.w3.org/1999/02/22-rdf-syntax-ns#"
   xmlns:svg="http://www.w3.org/2000/svg"
   xmlns="http://www.w3.org/2000/svg"
   xmlns:sodipodi="http://sodipodi.sourceforge.net/DTD/sodipodi-0.dtd"
   xmlns:inkscape="http://www.inkscape.org/namespaces/inkscape"
   version="1.1"
   id="svg919"
   width="350"
   height="350"
   viewBox="0 0 350 350"
   sodipodi:docname="ivyfalse.svg"
   inkscape:version="1.0.1 (1.0.1+r74)">
  <metadata
     id="metadata925">
    <rdf:RDF>
      <cc:Work
         rdf:about="">
        <dc:format>image/svg+xml</dc:format>
        <dc:type
           rdf:resource="http://purl.org/dc/dcmitype/StillImage" />
        <dc:title></dc:title>
      </cc:Work>
    </rdf:RDF>
  </metadata>
  <defs
     id="defs923">
    <inkscape:path-effect
       effect="powerstroke"
       id="path-effect1253"
       is_visible="true"
       lpeversion="1"
       offset_points="0.87400925,2.5958747"
       sort_points="true"
       interpolator_type="CentripetalCatmullRom"
       interpolator_beta="0.75"
       start_linecap_type="round"
       linejoin_type="spiro"
       miter_limit="4"
       scale_width="1"
       end_linecap_type="round" />
    <inkscape:path-effect
       effect="simplify"
       id="path-effect1251"
       is_visible="true"
       lpeversion="1"
       steps="1"
       threshold="0.0074604847"
       smooth_angles="0"
       helper_size="0"
       simplify_individual_paths="false"
       simplify_just_coalesce="false"
       step="1" />
    <inkscape:path-effect
       effect="powerstroke"
       id="path-effect1246"
       is_visible="true"
       lpeversion="1"
       offset_points="0.28217686,2.5958747"
       sort_points="true"
       interpolator_type="CentripetalCatmullRom"
       interpolator_beta="0.75"
       start_linecap_type="round"
       linejoin_type="spiro"
       miter_limit="4"
       scale_width="1"
       end_linecap_type="round" />
    <inkscape:path-effect
       effect="simplify"
       id="path-effect1244"
       is_visible="true"
       lpeversion="1"
       steps="1"
       threshold="0.0074604847"
       smooth_angles="0"
       helper_size="0"
       simplify_individual_paths="false"
       simplify_just_coalesce="false"
       step="1" />
    <inkscape:path-effect
       effect="powerstroke"
       id="path-effect1239"
       is_visible="true"
       lpeversion="1"
       offset_points="0.57564673,2.5958747"
       sort_points="true"
       interpolator_type="CentripetalCatmullRom"
       interpolator_beta="0.75"
       start_linecap_type="round"
       linejoin_type="spiro"
       miter_limit="4"
       scale_width="1"
       end_linecap_type="round" />
    <inkscape:path-effect
       effect="simplify"
       id="path-effect1237"
       is_visible="true"
       lpeversion="1"
       steps="1"
       threshold="0.0074604847"
       smooth_angles="0"
       helper_size="0"
       simplify_individual_paths="false"
       simplify_just_coalesce="false"
       step="1" />
    <inkscape:path-effect
       effect="powerstroke"
       id="path-effect1232"
       is_visible="true"
       lpeversion="1"
       offset_points="1.4416034,2.5958747"
       sort_points="true"
       interpolator_type="CentripetalCatmullRom"
       interpolator_beta="0.75"
       start_linecap_type="round"
       linejoin_type="spiro"
       miter_limit="4"
       scale_width="1"
       end_linecap_type="round" />
    <inkscape:path-effect
       effect="simplify"
       id="path-effect1230"
       is_visible="true"
       lpeversion="1"
       steps="1"
       threshold="0.0074604847"
       smooth_angles="0"
       helper_size="0"
       simplify_individual_paths="false"
       simplify_just_coalesce="false"
       step="1" />
    <inkscape:path-effect
       effect="powerstroke"
       id="path-effect1225"
       is_visible="true"
       lpeversion="1"
       offset_points="1.4104795,2.5958747"
       sort_points="true"
       interpolator_type="CentripetalCatmullRom"
       interpolator_beta="0.75"
       start_linecap_type="round"
       linejoin_type="spiro"
       miter_limit="4"
       scale_width="1"
       end_linecap_type="round" />
    <inkscape:path-effect
       effect="simplify"
       id="path-effect1223"
       is_visible="true"
       lpeversion="1"
       steps="1"
       threshold="0.0074604847"
       smooth_angles="0"
       helper_size="0"
       simplify_individual_paths="false"
       simplify_just_coalesce="false"
       step="1" />
    <inkscape:path-effect
       effect="powerstroke"
       id="path-effect1218"
       is_visible="true"
       lpeversion="1"
       offset_points="1.8499903,2.5958747"
       sort_points="true"
       interpolator_type="CentripetalCatmullRom"
       interpolator_beta="0.75"
       start_linecap_type="round"
       linejoin_type="spiro"
       miter_limit="4"
       scale_width="1"
       end_linecap_type="round" />
    <inkscape:path-effect
       effect="simplify"
       id="path-effect1216"
       is_visible="true"
       lpeversion="1"
       steps="1"
       threshold="0.0074604847"
       smooth_angles="0"
       helper_size="0"
       simplify_individual_paths="false"
       simplify_just_coalesce="false"
       step="1" />
    <inkscape:path-effect
       effect="powerstroke"
       id="path-effect1211"
       is_visible="true"
       lpeversion="1"
       offset_points="2.2053679,1.8355606"
       sort_points="true"
       interpolator_type="CentripetalCatmullRom"
       interpolator_beta="0.75"
       start_linecap_type="round"
       linejoin_type="spiro"
       miter_limit="4"
       scale_width="1"
       end_linecap_type="round" />
    <inkscape:path-effect
       effect="simplify"
       id="path-effect1209"
       is_visible="true"
       lpeversion="1"
       steps="1"
       threshold="0.0074604847"
       smooth_angles="0"
       helper_size="0"
       simplify_individual_paths="false"
       simplify_just_coalesce="false"
       step="1" />
    <inkscape:path-effect
       effect="powerstroke"
       id="path-effect1204"
       is_visible="true"
       lpeversion="1"
       offset_points="0.32647195,1.8355606"
       sort_points="true"
       interpolator_type="CentripetalCatmullRom"
       interpolator_beta="0.75"
       start_linecap_type="round"
       linejoin_type="spiro"
       miter_limit="4"
       scale_width="1"
       end_linecap_type="round" />
    <inkscape:path-effect
       effect="simplify"
       id="path-effect1202"
       is_visible="true"
       lpeversion="1"
       steps="1"
       threshold="0.0074604847"
       smooth_angles="0"
       helper_size="0"
       simplify_individual_paths="false"
       simplify_just_coalesce="false"
       step="1" />
    <inkscape:path-effect
       effect="powerstroke"
       id="path-effect1197"
       is_visible="true"
       lpeversion="1"
       offset_points="0.13682555,1.8355606"
       sort_points="true"
       interpolator_type="CentripetalCatmullRom"
       interpolator_beta="0.75"
       start_linecap_type="round"
       linejoin_type="spiro"
       miter_limit="4"
       scale_width="1"
       end_linecap_type="round" />
    <inkscape:path-effect
       effect="simplify"
       id="path-effect1195"
       is_visible="true"
       lpeversion="1"
       steps="1"
       threshold="0.0074604847"
       smooth_angles="0"
       helper_size="0"
       simplify_individual_paths="false"
       simplify_just_coalesce="false"
       step="1" />
    <inkscape:path-effect
       effect="powerstroke"
       id="path-effect1190"
       is_visible="true"
       lpeversion="1"
       offset_points="0.24564768,4.9297913"
       sort_points="true"
       interpolator_type="CentripetalCatmullRom"
       interpolator_beta="0.75"
       start_linecap_type="round"
       linejoin_type="spiro"
       miter_limit="4"
       scale_width="1"
       end_linecap_type="round" />
    <inkscape:path-effect
       effect="simplify"
       id="path-effect1188"
       is_visible="true"
       lpeversion="1"
       steps="1"
       threshold="0.0074604847"
       smooth_angles="0"
       helper_size="0"
       simplify_individual_paths="false"
       simplify_just_coalesce="false"
       step="1" />
    <inkscape:path-effect
       effect="powerstroke"
       id="path-effect1183"
       is_visible="true"
       lpeversion="1"
       offset_points="0.39194431,4.9297913"
       sort_points="true"
       interpolator_type="CentripetalCatmullRom"
       interpolator_beta="0.75"
       start_linecap_type="round"
       linejoin_type="spiro"
       miter_limit="4"
       scale_width="1"
       end_linecap_type="round" />
    <inkscape:path-effect
       effect="simplify"
       id="path-effect1181"
       is_visible="true"
       lpeversion="1"
       steps="1"
       threshold="0.0074604847"
       smooth_angles="0"
       helper_size="0"
       simplify_individual_paths="false"
       simplify_just_coalesce="false"
       step="1" />
    <inkscape:path-effect
       effect="powerstroke"
       id="path-effect1176"
       is_visible="true"
       lpeversion="1"
       offset_points="0.45391205,4.9297913"
       sort_points="true"
       interpolator_type="CentripetalCatmullRom"
       interpolator_beta="0.75"
       start_linecap_type="round"
       linejoin_type="spiro"
       miter_limit="4"
       scale_width="1"
       end_linecap_type="round" />
    <inkscape:path-effect
       effect="simplify"
       id="path-effect1174"
       is_visible="true"
       lpeversion="1"
       steps="1"
       threshold="0.0074604847"
       smooth_angles="0"
       helper_size="0"
       simplify_individual_paths="false"
       simplify_just_coalesce="false"
       step="1" />
    <inkscape:path-effect
       effect="powerstroke"
       id="path-effect1169"
       is_visible="true"
       lpeversion="1"
       offset_points="0.25752982,4.9297913"
       sort_points="true"
       interpolator_type="CentripetalCatmullRom"
       interpolator_beta="0.75"
       start_linecap_type="round"
       linejoin_type="spiro"
       miter_limit="4"
       scale_width="1"
       end_linecap_type="round" />
    <inkscape:path-effect
       effect="simplify"
       id="path-effect1167"
       is_visible="true"
       lpeversion="1"
       steps="1"
       threshold="0.0074604847"
       smooth_angles="0"
       helper_size="0"
       simplify_individual_paths="false"
       simplify_just_coalesce="false"
       step="1" />
    <inkscape:path-effect
       effect="powerstroke"
       id="path-effect1162"
       is_visible="true"
       lpeversion="1"
       offset_points="0.47024424,4.9297913"
       sort_points="true"
       interpolator_type="CentripetalCatmullRom"
       interpolator_beta="0.75"
       start_linecap_type="round"
       linejoin_type="spiro"
       miter_limit="4"
       scale_width="1"
       end_linecap_type="round" />
    <inkscape:path-effect
       effect="simplify"
       id="path-effect1160"
       is_visible="true"
       lpeversion="1"
       steps="1"
       threshold="0.0074604847"
       smooth_angles="0"
       helper_size="0"
       simplify_individual_paths="false"
       simplify_just_coalesce="false"
       step="1" />
    <inkscape:path-effect
       effect="powerstroke"
       id="path-effect1155"
       is_visible="true"
       lpeversion="1"
       offset_points="0.42920471,4.9297913"
       sort_points="true"
       interpolator_type="CentripetalCatmullRom"
       interpolator_beta="0.75"
       start_linecap_type="round"
       linejoin_type="spiro"
       miter_limit="4"
       scale_width="1"
       end_linecap_type="round" />
    <inkscape:path-effect
       effect="simplify"
       id="path-effect1153"
       is_visible="true"
       lpeversion="1"
       steps="1"
       threshold="0.0074604847"
       smooth_angles="0"
       helper_size="0"
       simplify_individual_paths="false"
       simplify_just_coalesce="false"
       step="1" />
    <inkscape:path-effect
       effect="powerstroke"
       id="path-effect1148"
       is_visible="true"
       lpeversion="1"
       offset_points="0.29298178,4.9297913"
       sort_points="true"
       interpolator_type="CentripetalCatmullRom"
       interpolator_beta="0.75"
       start_linecap_type="round"
       linejoin_type="spiro"
       miter_limit="4"
       scale_width="1"
       end_linecap_type="round" />
    <inkscape:path-effect
       effect="simplify"
       id="path-effect1146"
       is_visible="true"
       lpeversion="1"
       steps="1"
       threshold="0.0074604847"
       smooth_angles="0"
       helper_size="0"
       simplify_individual_paths="false"
       simplify_just_coalesce="false"
       step="1" />
    <inkscape:path-effect
       effect="powerstroke"
       id="path-effect1141"
       is_visible="true"
       lpeversion="1"
       offset_points="0.78916799,4.9297913"
       sort_points="true"
       interpolator_type="CentripetalCatmullRom"
       interpolator_beta="0.75"
       start_linecap_type="round"
       linejoin_type="spiro"
       miter_limit="4"
       scale_width="1"
       end_linecap_type="round" />
    <inkscape:path-effect
       effect="simplify"
       id="path-effect1139"
       is_visible="true"
       lpeversion="1"
       steps="1"
       threshold="0.0074604847"
       smooth_angles="0"
       helper_size="0"
       simplify_individual_paths="false"
       simplify_just_coalesce="false"
       step="1" />
    <inkscape:path-effect
       effect="powerstroke"
       id="path-effect1134"
       is_visible="true"
       lpeversion="1"
       offset_points="0.35610574,4.9297913"
       sort_points="true"
       interpolator_type="CentripetalCatmullRom"
       interpolator_beta="0.75"
       start_linecap_type="round"
       linejoin_type="spiro"
       miter_limit="4"
       scale_width="1"
       end_linecap_type="round" />
    <inkscape:path-effect
       effect="simplify"
       id="path-effect1132"
       is_visible="true"
       lpeversion="1"
       steps="1"
       threshold="0.0074604847"
       smooth_angles="0"
       helper_size="0"
       simplify_individual_paths="false"
       simplify_just_coalesce="false"
       step="1" />
    <inkscape:path-effect
       effect="powerstroke"
       id="path-effect1127"
       is_visible="true"
       lpeversion="1"
       offset_points="0.34676024,4.9297913"
       sort_points="true"
       interpolator_type="CentripetalCatmullRom"
       interpolator_beta="0.75"
       start_linecap_type="round"
       linejoin_type="spiro"
       miter_limit="4"
       scale_width="1"
       end_linecap_type="round" />
    <inkscape:path-effect
       effect="simplify"
       id="path-effect1125"
       is_visible="true"
       lpeversion="1"
       steps="1"
       threshold="0.0074604847"
       smooth_angles="0"
       helper_size="0"
       simplify_individual_paths="false"
       simplify_just_coalesce="false"
       step="1" />
    <inkscape:path-effect
       effect="powerstroke"
       id="path-effect1120"
       is_visible="true"
       lpeversion="1"
       offset_points="0.50815914,4.9297913"
       sort_points="true"
       interpolator_type="CentripetalCatmullRom"
       interpolator_beta="0.75"
       start_linecap_type="round"
       linejoin_type="spiro"
       miter_limit="4"
       scale_width="1"
       end_linecap_type="round" />
    <inkscape:path-effect
       effect="simplify"
       id="path-effect1118"
       is_visible="true"
       lpeversion="1"
       steps="1"
       threshold="0.0074604847"
       smooth_angles="0"
       helper_size="0"
       simplify_individual_paths="false"
       simplify_just_coalesce="false"
       step="1" />
    <inkscape:path-effect
       effect="powerstroke"
       id="path-effect1113"
       is_visible="true"
       lpeversion="1"
       offset_points="0.44957449,4.9297913"
       sort_points="true"
       interpolator_type="CentripetalCatmullRom"
       interpolator_beta="0.75"
       start_linecap_type="round"
       linejoin_type="spiro"
       miter_limit="4"
       scale_width="1"
       end_linecap_type="round" />
    <inkscape:path-effect
       effect="simplify"
       id="path-effect1111"
       is_visible="true"
       lpeversion="1"
       steps="1"
       threshold="0.0074604847"
       smooth_angles="0"
       helper_size="0"
       simplify_individual_paths="false"
       simplify_just_coalesce="false"
       step="1" />
    <inkscape:path-effect
       effect="powerstroke"
       id="path-effect1106"
       is_visible="true"
       lpeversion="1"
       offset_points="0.11853563,4.9297913"
       sort_points="true"
       interpolator_type="CentripetalCatmullRom"
       interpolator_beta="0.75"
       start_linecap_type="round"
       linejoin_type="spiro"
       miter_limit="4"
       scale_width="1"
       end_linecap_type="round" />
    <inkscape:path-effect
       effect="simplify"
       id="path-effect1104"
       is_visible="true"
       lpeversion="1"
       steps="1"
       threshold="0.0074604847"
       smooth_angles="0"
       helper_size="0"
       simplify_individual_paths="false"
       simplify_just_coalesce="false"
       step="1" />
    <inkscape:path-effect
       effect="powerstroke"
       id="path-effect1099"
       is_visible="true"
       lpeversion="1"
       offset_points="0.24972875,4.9297913"
       sort_points="true"
       interpolator_type="CentripetalCatmullRom"
       interpolator_beta="0.75"
       start_linecap_type="round"
       linejoin_type="spiro"
       miter_limit="4"
       scale_width="1"
       end_linecap_type="round" />
    <inkscape:path-effect
       effect="simplify"
       id="path-effect1097"
       is_visible="true"
       lpeversion="1"
       steps="1"
       threshold="0.0074604847"
       smooth_angles="0"
       helper_size="0"
       simplify_individual_paths="false"
       simplify_just_coalesce="false"
       step="1" />
    <inkscape:path-effect
       effect="powerstroke"
       id="path-effect1092"
       is_visible="true"
       lpeversion="1"
       offset_points="0.30214557,3.4858888"
       sort_points="true"
       interpolator_type="CentripetalCatmullRom"
       interpolator_beta="0.75"
       start_linecap_type="round"
       linejoin_type="spiro"
       miter_limit="4"
       scale_width="1"
       end_linecap_type="round" />
    <inkscape:path-effect
       effect="simplify"
       id="path-effect1090"
       is_visible="true"
       lpeversion="1"
       steps="1"
       threshold="0.0074604847"
       smooth_angles="0"
       helper_size="0"
       simplify_individual_paths="false"
       simplify_just_coalesce="false"
       step="1" />
    <inkscape:path-effect
       effect="powerstroke"
       id="path-effect1085"
       is_visible="true"
       lpeversion="1"
       offset_points="0.37933911,2.2250354"
       sort_points="true"
       interpolator_type="CentripetalCatmullRom"
       interpolator_beta="0.75"
       start_linecap_type="round"
       linejoin_type="spiro"
       miter_limit="4"
       scale_width="1"
       end_linecap_type="round" />
    <inkscape:path-effect
       effect="simplify"
       id="path-effect1083"
       is_visible="true"
       lpeversion="1"
       steps="1"
       threshold="0.0074604847"
       smooth_angles="0"
       helper_size="0"
       simplify_individual_paths="false"
       simplify_just_coalesce="false"
       step="1" />
    <inkscape:path-effect
       effect="powerstroke"
       id="path-effect1078"
       is_visible="true"
       lpeversion="1"
       offset_points="0.71746967,2.2250354"
       sort_points="true"
       interpolator_type="CentripetalCatmullRom"
       interpolator_beta="0.75"
       start_linecap_type="round"
       linejoin_type="spiro"
       miter_limit="4"
       scale_width="1"
       end_linecap_type="round" />
    <inkscape:path-effect
       effect="simplify"
       id="path-effect1076"
       is_visible="true"
       lpeversion="1"
       steps="1"
       threshold="0.0074604847"
       smooth_angles="0"
       helper_size="0"
       simplify_individual_paths="false"
       simplify_just_coalesce="false"
       step="1" />
    <inkscape:path-effect
       effect="powerstroke"
       id="path-effect1071"
       is_visible="true"
       lpeversion="1"
       offset_points="0.63933723,2.2250354"
       sort_points="true"
       interpolator_type="CentripetalCatmullRom"
       interpolator_beta="0.75"
       start_linecap_type="round"
       linejoin_type="spiro"
       miter_limit="4"
       scale_width="1"
       end_linecap_type="round" />
    <inkscape:path-effect
       effect="simplify"
       id="path-effect1069"
       is_visible="true"
       lpeversion="1"
       steps="1"
       threshold="0.0074604847"
       smooth_angles="0"
       helper_size="0"
       simplify_individual_paths="false"
       simplify_just_coalesce="false"
       step="1" />
    <inkscape:path-effect
       effect="powerstroke"
       id="path-effect1064"
       is_visible="true"
       lpeversion="1"
       offset_points="0.27430785,2.2250354"
       sort_points="true"
       interpolator_type="CentripetalCatmullRom"
       interpolator_beta="0.75"
       start_linecap_type="round"
       linejoin_type="spiro"
       miter_limit="4"
       scale_width="1"
       end_linecap_type="round" />
    <inkscape:path-effect
       effect="simplify"
       id="path-effect1062"
       is_visible="true"
       lpeversion="1"
       steps="1"
       threshold="0.0074604847"
       smooth_angles="0"
       helper_size="0"
       simplify_individual_paths="false"
       simplify_just_coalesce="false"
       step="1" />
    <inkscape:path-effect
       effect="powerstroke"
       id="path-effect1057"
       is_visible="true"
       lpeversion="1"
       offset_points="0.49723706,2.2250354"
       sort_points="true"
       interpolator_type="CentripetalCatmullRom"
       interpolator_beta="0.75"
       start_linecap_type="round"
       linejoin_type="spiro"
       miter_limit="4"
       scale_width="1"
       end_linecap_type="round" />
    <inkscape:path-effect
       effect="simplify"
       id="path-effect1055"
       is_visible="true"
       lpeversion="1"
       steps="1"
       threshold="0.0074604847"
       smooth_angles="0"
       helper_size="0"
       simplify_individual_paths="false"
       simplify_just_coalesce="false"
       step="1" />
    <inkscape:path-effect
       effect="powerstroke"
       id="path-effect1050"
       is_visible="true"
       lpeversion="1"
       offset_points="0.40694594,2.2250354"
       sort_points="true"
       interpolator_type="CentripetalCatmullRom"
       interpolator_beta="0.75"
       start_linecap_type="round"
       linejoin_type="spiro"
       miter_limit="4"
       scale_width="1"
       end_linecap_type="round" />
    <inkscape:path-effect
       effect="simplify"
       id="path-effect1048"
       is_visible="true"
       lpeversion="1"
       steps="1"
       threshold="0.0074604847"
       smooth_angles="0"
       helper_size="0"
       simplify_individual_paths="false"
       simplify_just_coalesce="false"
       step="1" />
    <inkscape:path-effect
       effect="powerstroke"
       id="path-effect1043"
       is_visible="true"
       lpeversion="1"
       offset_points="0.33340041,2.2250354"
       sort_points="true"
       interpolator_type="CentripetalCatmullRom"
       interpolator_beta="0.75"
       start_linecap_type="round"
       linejoin_type="spiro"
       miter_limit="4"
       scale_width="1"
       end_linecap_type="round" />
    <inkscape:path-effect
       effect="simplify"
       id="path-effect1041"
       is_visible="true"
       lpeversion="1"
       steps="1"
       threshold="0.0074604847"
       smooth_angles="0"
       helper_size="0"
       simplify_individual_paths="false"
       simplify_just_coalesce="false"
       step="1" />
    <inkscape:path-effect
       effect="skeletal"
       id="path-effect1019"
       is_visible="true"
       lpeversion="1"
       pattern="M 0,5 C 0,2.24 2.24,0 5,0 7.76,0 10,2.24 10,5 10,7.76 7.76,10 5,10 2.24,10 0,7.76 0,5 Z"
       copytype="single_stretched"
       prop_scale="1"
       scale_y_rel="false"
       spacing="0"
       normal_offset="0"
       tang_offset="0"
       prop_units="false"
       vertical_pattern="false"
       hide_knot="false"
       fuse_tolerance="0" />
    <inkscape:path-effect
       effect="skeletal"
       id="path-effect1015"
       is_visible="true"
       lpeversion="1"
       pattern="M 0,5 C 0,2.24 2.24,0 5,0 7.76,0 10,2.24 10,5 10,7.76 7.76,10 5,10 2.24,10 0,7.76 0,5 Z"
       copytype="single_stretched"
       prop_scale="1"
       scale_y_rel="false"
       spacing="0"
       normal_offset="0"
       tang_offset="0"
       prop_units="false"
       vertical_pattern="false"
       hide_knot="false"
       fuse_tolerance="0" />
    <inkscape:path-effect
       effect="skeletal"
       id="path-effect1011"
       is_visible="true"
       lpeversion="1"
       pattern="M 0,5 C 0,2.24 2.24,0 5,0 7.76,0 10,2.24 10,5 10,7.76 7.76,10 5,10 2.24,10 0,7.76 0,5 Z"
       copytype="single_stretched"
       prop_scale="1"
       scale_y_rel="false"
       spacing="0"
       normal_offset="0"
       tang_offset="0"
       prop_units="false"
       vertical_pattern="false"
       hide_knot="false"
       fuse_tolerance="0" />
  </defs>
  <sodipodi:namedview
     pagecolor="#ffffff"
     bordercolor="#666666"
     borderopacity="1"
     objecttolerance="10"
     gridtolerance="10"
     guidetolerance="10"
     inkscape:pageopacity="0"
     inkscape:pageshadow="2"
     inkscape:window-width="1920"
     inkscape:window-height="1019"
     id="namedview921"
     showgrid="false"
     inkscape:zoom="2.2345013"
     inkscape:cx="186.77246"
     inkscape:cy="160.36654"
     inkscape:window-x="0"
     inkscape:window-y="25"
     inkscape:window-maximized="1"
     inkscape:current-layer="g927"
     inkscape:showpageshadow="false"
     inkscape:document-rotation="0" />
  <g
     inkscape:groupmode="layer"
     inkscape:label="Image"
     id="g927">
    <g
       id="g1365">
      <path
         style="fill:none;fill-opacity:1;stroke:#ffffff;stroke-width:2.829;stroke-miterlimit:4;stroke-dasharray:none;stroke-opacity:1"
         d="m 136.70583,40.236673 c -0.62443,-0.62443 -0.75157,-0.49623 -1.13687,1.14633 l -0.30189,1.28695 0.97558,-0.96045 c 0.75626,-0.74453 0.86038,-1.07563 0.46318,-1.47283 z"
         id="path1350" />
      <path
         style="fill:none;fill-opacity:1;stroke:#ffffff;stroke-width:2.829;stroke-miterlimit:4;stroke-dasharray:none;stroke-opacity:1"
         d="m 48.2379,230.5639 c 0.68447,-0.82474 -0.0139,-0.83342 -1.09771,-0.0137 -0.69957,0.52913 -0.72107,0.63201 -0.13452,0.64348 0.384,0.007 0.93851,-0.27592 1.23223,-0.62983 z"
         id="path1326" />
      <path
         style="fill:none;fill-opacity:1;stroke:#ffffff;stroke-width:2.829;stroke-miterlimit:4;stroke-dasharray:none;stroke-opacity:1"
         d="m 79.892106,236.5674 c 0.0682,-0.0566 0.0682,-1.86451 0,-4.01758 l -0.12406,-3.91467 -1.55565,4.29847 -1.55564,4.29847 1.55564,-0.28089 c 0.85561,-0.15449 1.61148,-0.3272 1.67971,-0.3838 z"
         id="path1324" />
      <path
         style="fill:none;fill-opacity:1;stroke:#ffffff;stroke-width:2.829;stroke-miterlimit:4;stroke-dasharray:none;stroke-opacity:1"
         d="m 316.35143,316.60947 c 0,-0.39502 -6.46009,-6.47364 -6.86371,-6.4584 -0.39775,0.015 -2.19233,5.99989 -1.92755,6.42832 0.33088,0.53538 8.79126,0.56432 8.79126,0.0301 z"
         id="path1314" />
      <path
         style="fill:none;fill-opacity:1;stroke:#ffffff;stroke-width:2.829;stroke-miterlimit:4;stroke-dasharray:none;stroke-opacity:1"
         d="m 130.17339,319.98952 c 0,-0.79123 -1.02478,-3.07644 -2.0973,-4.67684 -0.31834,-0.47503 -0.67065,-0.0395 -1.51803,1.87655 -0.60691,1.37234 -1.10347,2.65075 -1.10347,2.84092 0,0.39231 1.2761,0.69016 3.32461,0.776 1.13637,0.0476 1.39419,-0.10339 1.39419,-0.81663 z"
         id="path1312" />
      <path
         style="fill:none;fill-opacity:1;stroke:#ffffff;stroke-width:2.829;stroke-miterlimit:4;stroke-dasharray:none;stroke-opacity:1"
         d="m 309.48772,321.35792 c 0,-1.08668 -8.54479,-10.78891 -9.50183,-10.78891 -0.52904,0 -4.21154,5.85703 -4.32775,6.8833 -0.0997,0.88009 0.23483,1.102 2.96668,1.96819 5.52925,1.75318 10.8629,2.70444 10.8629,1.93742 z"
         id="path1310" />
      <path
         style="fill:none;fill-opacity:1;stroke:#ffffff;stroke-width:2.829;stroke-miterlimit:4;stroke-dasharray:none;stroke-opacity:1"
         d="m 294.60486,320.3765 c -1.19536,-2.07621 -6.34811,-7.2336 -7.22709,-7.2336 -0.94003,0 -4.91589,4.00648 -4.91589,4.95376 0,1.19537 7.18413,3.52786 11.07053,3.59429 l 1.84742,0.0316 -0.77497,-1.34604 z"
         id="path1308" />
      <path
         style="fill:none;fill-opacity:1;stroke:#ffffff;stroke-width:2.829;stroke-miterlimit:4;stroke-dasharray:none;stroke-opacity:1"
         d="m 119.44885,323.73718 c 0,-1.93662 -1.83669,-5.46632 -3.93766,-7.56729 -0.95703,-0.95703 -1.9011,-1.74004 -2.09795,-1.74004 -1.1118,0 -5.04279,7.53941 -4.31201,8.27018 0.52301,0.52301 7.61952,2.40696 9.16792,2.43386 1.05302,0.0183 1.1797,-0.13168 1.1797,-1.39671 z"
         id="path1306" />
      <path
         style="fill:none;fill-opacity:1;stroke:#ffffff;stroke-width:2.829;stroke-miterlimit:4;stroke-dasharray:none;stroke-opacity:1"
         d="m 102.1773,323.03104 c -0.21468,-2.3676 -2.08177,-6.88527 -2.845578,-6.88527 -0.60917,0 -3.47792,4.44469 -3.46338,5.36599 0.007,0.46984 0.50172,1.20991 1.09847,1.64461 2.04661,1.49088 4.630638,2.80413 5.030858,2.55677 0.22022,-0.1361 0.30105,-1.34305 0.17963,-2.6821 z"
         id="path1304" />
      <path
         style="fill:none;fill-opacity:1;stroke:#ffffff;stroke-width:2.829;stroke-miterlimit:4;stroke-dasharray:none;stroke-opacity:1"
         d="m 236.15503,324.58113 c -0.68318,-2.07005 -3.6355,-6.55625 -4.68382,-7.11729 -0.72008,-0.38537 -0.99201,-0.26946 -1.68913,0.71999 -0.8508,1.20759 -2.65884,4.61582 -2.65884,5.01203 0,0.80033 8.55669,3.83681 9.16217,3.25135 0.20411,-0.19737 0.14604,-1.02853 -0.13038,-1.86608 z"
         id="path1302" />
      <path
         style="fill:none;fill-opacity:1;stroke:#ffffff;stroke-width:2.829;stroke-miterlimit:4;stroke-dasharray:none;stroke-opacity:1"
         d="m 227.55222,330.04044 c 0,-2.33669 -5.97187,-10.24065 -8.5416,-11.30506 -1.13234,-0.46903 -1.43991,-0.42132 -2.59746,0.40293 -1.799,1.281 -4.18447,4.49399 -4.54069,6.11586 -0.22287,1.0147 -0.1128,1.47145 0.45456,1.88632 0.84189,0.6156 10.21317,2.84321 14.90346,3.54264 0.17695,0.0264 0.32173,-0.26282 0.32173,-0.64269 z"
         id="path1262" />
      <path
         style="fill:none;fill-opacity:1;stroke:#ffffff;stroke-width:2.829;stroke-miterlimit:4;stroke-dasharray:none;stroke-opacity:1"
         d="m 208.06738,329.82284 c -0.16016,-1.20737 -0.68783,-3.039 -1.1726,-4.07029 -0.91967,-1.95652 -3.39735,-4.45904 -4.41477,-4.45904 -0.81951,0 -2.78356,2.41991 -3.77499,4.65115 l -0.8277,1.86275 0.97779,1.04082 c 0.98328,1.04665 6.54442,3.11148 8.483,3.1497 0.98126,0.0193 1.00928,-0.0642 0.72927,-2.17509 z"
         id="path1260" />
      <path
         style="fill:none;fill-opacity:1;stroke:#ffffff;stroke-width:2.829;stroke-miterlimit:4;stroke-dasharray:none;stroke-opacity:1"
         d="m 204.96432,332.48557 c -1.68809,-0.41406 -4.10111,-1.24904 -5.36228,-1.85551 -1.55582,-0.74816 -3.67219,-1.26446 -6.58284,-1.6059 -3.31866,-0.3893 -4.64422,-0.74506 -5.85529,-1.57145 -3.00329,-2.04933 -7.29883,-7.93673 -11.92704,-16.34702 -2.14914,-3.90537 -2.87464,-4.87529 -3.80461,-5.0864 -10.26767,-2.33078 -21.59909,-6.56112 -28.13713,-10.5044 -1.52856,-0.92191 -2.96776,-1.6762 -3.19824,-1.6762 -1.34137,0 -6.73633,8.3088 -10.18036,15.67881 l -1.88138,4.02606 1.04025,1.53292 c 1.37845,2.03124 2.55122,5.16494 2.23822,5.9806 -0.20533,0.53507 -1.05268,0.6387 -4.66366,0.57032 -5.75539,-0.10898 -6.26034,0.0771 -6.42678,2.36866 -0.12498,1.72084 -0.1983,1.80727 -1.6323,1.92441 -0.82579,0.0675 -3.33533,-0.38781 -5.57676,-1.01169 -2.24143,-0.62388 -5.26283,-1.19672 -6.71423,-1.27299 l -2.6389,-0.13867 -0.27334,1.45704 c -0.4763,2.53893 -1.54446,2.49897 -5.743288,-0.21486 -1.50106,-0.97019 -3.203305,-1.72986 -3.876215,-1.72986 -2.241011,0 -10.419511,-1.66034 -11.425571,-2.31953 -2.47862,-1.62406 -3.91175,-10.13964 -3.43599,-20.4165 0.62495,-13.49952 3.28551,-28.85358 7.56626,-43.66485 0.97427,-3.37093 1.69815,-6.1968 1.60862,-6.27971 -0.0895,-0.0829 -1.90015,0.11314 -4.02361,0.43568 -2.12345,0.32255 -4.10003,0.59061 -4.39238,0.59571 -0.52414,0.009 -0.50553,-2.03748 0.0965,-10.60803 l 0.18832,-2.68114 h -1.40331 c -0.77181,0 -1.72501,0.24131 -2.11822,0.53623 -0.39321,0.29493 -1.42282,2.56317 -2.28803,5.04054 -0.8652,2.47736 -1.84892,4.82428 -2.18603,5.21535 -0.83573,0.96951 -4.20421,2.37085 -7.581896,3.15418 -2.48631,0.57662 -12.25102,1.53278 -12.63987,1.2377 -0.17077,-0.12959 1.95784,-10.50108 2.38215,-11.6068 0.58173,-1.51597 -0.73033,-0.0262 -3.15744,3.58515 -1.37787,2.05015 -2.62318,3.89964 -2.76736,4.10998 -0.21305,0.31082 -10.00983,-3.16958 -10.60931,-3.76906 -0.0954,-0.0954 1.889,-3.00416 4.40988,-6.46381 6.0244,-8.26788 5.81689,-8.98831 -1.52739,-5.30278 -2.37986,1.19427 -4.36951,2.11122 -4.42145,2.03766 -0.0519,-0.0736 -0.92026,-2.42977 -1.92961,-5.23604 l -1.83519,-5.1023 1.39639,-1.11793 c 9.83099,-7.87053 28.25981,-18.26157 48.809876,-27.52134 l 7.00523,-3.15652 -6.36175,-3.17854 c -3.49896,-1.74821 -6.44112,-3.25218 -6.53813,-3.34216 -0.097,-0.09 0.66174,-1.15758 1.68612,-2.37244 2.11188,-2.50456 2.01907,-2.51745 -1.41131,-0.19594 l -2.47546,1.67527 -5.24621,-2.2828 c -2.88542,-1.25554 -6.404456,-2.77222 -7.820096,-3.37039 -1.41564,-0.59818 -2.64525,-1.13615 -2.73247,-1.19548 -0.0872,-0.0593 0.56326,-1.09124 1.44552,-2.29312 0.88227,-1.20188 1.52787,-2.26147 1.43469,-2.35466 -0.0932,-0.0932 -2.56163,1.54531 -5.48542,3.64111 l -5.31599,3.81053 -7.54262,-3.92164 c -4.14844,-2.15691 -9.03555,-4.71671 -10.86026,-5.68845 l -3.317641,-1.76681 1.488041,-1.44227 c 0.81843,-0.79325 1.40176,-1.52856 1.29629,-1.63404 -0.10547,-0.10547 -1.44562,0.34114 -2.978111,0.99245 l -2.78634,1.18422 -4.73714,-4.40514 c -2.60542,-2.42283 -4.72877,-4.52348 -4.71853,-4.66811 0.0102,-0.14464 2.14578,-1.87566 4.74567,-3.8467 2.59988,-1.97105 4.6501,-3.6607 4.55602,-3.75477 -0.0941,-0.0941 -2.91639,0.79469 -6.27182,1.97504 -3.35542,1.18035 -6.35188,2.14608 -6.6588,2.14608 -0.73828,0 -12.44097937,-18.44566 -11.97749937,-18.8788 0.19743997,-0.18451 2.72931917,-1.10128 5.62640887,-2.03726 2.897091,-0.93599 5.3722705,-1.80662 5.5003905,-1.93474 0.12812,-0.12812 -2.1995105,-1.55427 -5.1725105,-3.16921 l -5.4054689,-2.93625 0.25689,-1.50143 c 0.14129,-0.82579 0.87074,-4.03926 1.6210002,-7.14105 l 1.3641187,-5.63961 8.5997505,3.75988 c 4.72987,2.06793 9.04162,3.90012 9.58166,4.07152 0.91678,0.29098 0.94714,0.24494 0.45768,-0.69415 -0.58436,-1.12116 -8.20467,-14.39868 -9.4771,-16.51274 l -0.81286,-1.35054 5.06721,-1.78677 c 2.78696,-0.98272 5.30355,-1.932828 5.59241,-2.111358 0.38725,-0.23934 0.0848,-1.27448 -1.15143,-3.94089 -0.92215,-1.98897 -1.6491,-3.64888 -1.61545,-3.68868 0.0565,-0.0669 20.963401,-2.716 21.434461,-2.716 0.11556,0 2.1837,3.71605 4.59588,8.25789 5.63522,10.610458 7.34421,13.695218 7.49862,13.535108 0.0686,-0.0712 -0.59265,-4.23157 -1.46953,-9.24529 l -1.59433,-9.115858 1.09847,0.007 c 1.66675,0.0109 18.965186,1.62741 19.104846,1.78528 0.0671,0.0759 2.96095,5.639608 6.43076,12.363898 3.4698,6.7243 6.50904,12.41903 6.75386,12.65497 0.30686,0.29572 0.36557,-0.57045 0.18902,-2.78838 -0.63984,-8.03811 -1.25647,-19.327528 -1.06606,-19.517938 0.11551,-0.1155 2.95687,0.46446 6.31414,1.28882 3.357271,0.82435 6.352476,1.49882 6.656006,1.49882 0.38847,0 0.70883,-1.49251 1.08194,-5.04053 0.79869,-7.595 2.470828,-16.079579 4.187848,-21.249419 1.5159,-4.56429 5.1775,-12.30902 9.77888,-20.68351 3.93221,-7.1566 6.07447,-13.605 7.12573,-21.44908 0.28458,-2.12346 0.70125,-4.09706 0.92593,-4.38577 0.72524,-0.93192 2.74384,0.55934 5.52036,4.0782 1.43663,1.82074 2.77238,3.48102 2.96832,3.68952 0.19897,0.21171 1.96481,-1.1614 3.99963,-3.11012 2.00385,-1.91906 3.78244,-3.4892 3.95241,-3.4892 0.16997,0 0.20217,2.31938 0.0716,5.15417 -0.22691,4.9249 -0.19728,5.17568 0.66602,5.63771 0.78453,0.41987 1.06522,0.29193 2.13171,-0.9716 0.67552,-0.80032 2.08939,-2.7428 3.14193,-4.31661 l 1.91371,-2.86147 -0.873,-5.93265 c -0.48015,-3.26296 -0.97255,-6.541059 -1.09422,-7.284669 -0.33102,-2.02309 0.59928,-2.75633 2.7912,-2.19996 2.52176,0.64009 5.53776,3.52539 10.18784,9.746349 0.0776,0.10375 1.06013,-0.71668 2.18351,-1.82317 2.54254,-2.50431 3.73055,-2.62614 4.62946,-0.47475 l 0.64222,1.53705 1.92973,-1.77877 c 2.68754,-2.477289 3.62653,-2.275139 4.44457,0.95682 0.34339,1.35666 0.79477,2.46665 1.00307,2.46665 0.20831,0 1.65855,-0.59237 3.22277,-1.31637 1.56421,-0.72401 3.356,-1.41877 3.98175,-1.54392 1.03672,-0.20734 1.16506,-0.0819 1.44557,1.41335 0.69716,3.71622 2.47231,8.38879 3.73201,9.82352 0.72104,0.82121 3.1767,2.54027 5.45703,3.82013 9.08208,5.0974 18.7246,13.55659 27.29461,23.94499 0.92454,1.12071 1.80731,2.03766 1.9617,2.03766 0.15439,0 0.0103,-1.17056 -0.32024,-2.60126 l -0.60095,-2.60126 6.49129,-6.72909 c 3.57021,-3.701 6.63351,-6.78275 6.80734,-6.84833 0.17384,-0.0656 2.61637,3.35655 5.42786,7.60474 2.81149,4.24818 5.23801,7.72833 5.39226,7.73366 0.30227,0.0104 0.63259,-4.48973 1.18926,-16.20179 0.1939,-4.07954 0.43411,-7.49891 0.5338,-7.5986 0.53117,-0.53118 11.28389,-1.56297 14.29779,-1.37197 4.31171,0.27326 4.81729,0.48517 5.15359,2.16012 0.6105,3.04064 0.2835,2.85979 5.17088,2.85979 h 4.47539 l -0.0374,3.96808 c -0.0206,2.18245 -0.1664,5.6572 -0.32412,7.72167 -0.20655,2.70373 -0.14914,3.75359 0.20527,3.75359 0.27061,0 4.66316,-1.73737 9.76123,-3.86083 5.09806,-2.12346 9.36594,-3.86084 9.48417,-3.86084 0.11825,0 0.21499,4.44886 0.21499,9.88635 v 9.88634 l -3.75359,1.80341 c -4.38462,2.10658 -4.02699,2.3367 2.52389,1.62404 2.34642,-0.25526 4.88603,-0.46437 5.64359,-0.46469 l 1.37736,-4.3e-4 -0.11142,2.46723 c -0.19246,4.26156 -0.97721,12.240799 -1.43168,14.557229 -0.50264,2.56199 0.25121,2.24653 -8.53797,3.57272 -8.1519,1.23003 -10.8279,1.783 -10.42786,2.15482 0.19074,0.17728 1.77592,0.64159 3.52263,1.03179 5.12012,1.14381 4.92899,0.8965 4.61589,5.972548 -0.14753,2.39187 -0.64926,5.7893 -1.11496,7.54986 -0.4657,1.76056 -0.77771,3.27003 -0.69335,3.35438 0.0844,0.0844 2.72994,-0.6422 5.8791,-1.61457 7.78581,-2.40403 13.39548,-3.35456 15.7082,-2.66164 4.70103,1.40846 10.36665,11.78088 14.23255,26.05646 l 0.92318,3.40901 3.26054,1.71592 c 4.25575,2.23969 4.79024,3.01038 5.26256,7.58824 0.3402,3.29742 0.54782,3.91001 1.94601,5.74173 3.22488,4.22484 6.41935,11.95004 7.53982,18.23363 0.43001,2.41152 0.91777,3.64308 2.0106,5.07668 0.79357,1.04101 1.89328,2.78162 2.44379,3.86801 2.78099,5.48802 2.39304,8.17882 -1.781,12.35286 -1.48932,1.48932 -2.70786,2.9056 -2.70786,3.14728 0,0.24168 -0.90996,1.41223 -2.02212,2.60123 -1.65915,1.77376 -2.21967,2.1223 -3.12264,1.94171 -0.9796,-0.19592 -1.2404,0.0476 -2.37367,2.21687 -4.5369,8.68421 -15.4757,19.91788 -26.82788,27.55107 l -3.70429,2.49076 1.86868,5.65213 c 4.93642,14.93106 8.7024,31.82964 9.98066,44.78493 0.67316,6.82256 0.5713,16.71971 -0.22837,22.18985 l -0.69074,4.72493 3.9081,3.64674 c 2.29708,2.1433 3.90809,3.98552 3.90809,4.4688 0,0.75826 -0.35142,0.82223 -4.51711,0.82223 h -4.51712 l 0.94503,1.64202 c 1.21123,2.10456 0.87165,3.07678 -1.07467,3.07678 -1.20797,0 -7.86485,-1.54019 -12.22665,-2.82885 -0.92207,-0.27242 -0.97063,-0.21872 -0.53623,0.59297 0.96495,1.80302 0.63781,2.23588 -1.6898,2.23588 -2.80212,0 -7.76274,-1.11992 -10.48749,-2.36768 -1.34093,-0.61406 -3.02147,-0.99542 -4.48347,-1.01743 -8.41638,-0.12667 -12.95737,-5.36194 -21.24982,-24.4987 -1.5847,-3.65707 -4.23516,-9.47843 -5.88991,-12.93635 l -3.00863,-6.28714 -3.91868,2.5788 c -4.11667,2.7091 -11.77259,6.71208 -14.58299,7.62488 -1.64732,0.53503 -1.65419,0.54675 -1.35529,2.31214 0.93346,5.51341 1.53875,11.33652 2.00282,19.26801 l 0.52156,8.91399 1.69071,1.7773 c 1.77174,1.8625 4.16192,6.38203 4.15127,7.84954 -0.0147,2.02828 -0.57267,2.18919 -3.93696,1.13545 -5.78076,-1.8106 -6.32357,-1.95005 -6.5826,-1.69102 -0.14186,0.14187 0.12933,1.01703 0.60265,1.94482 0.47332,0.92779 0.92113,2.24952 0.99514,2.9372 0.13355,1.24108 0.11911,1.24951 -1.95679,1.14091 -1.15024,-0.0602 -3.94934,-0.51185 -6.22023,-1.00375 -4.85233,-1.05105 -8.60889,-1.45303 -10.09444,-1.08018 -0.88833,0.22296 -1.08524,0.56143 -1.19533,2.05475 -0.0725,0.98331 -0.32486,1.83611 -0.5608,1.89512 -0.23594,0.059 -1.81014,-0.23148 -3.49822,-0.64555 z"
         id="path987" />
    </g>
  </g>
</svg>
