<?xml version="1.0" encoding="UTF-8" standalone="no"?>
<svg
   xmlns:dc="http://purl.org/dc/elements/1.1/"
   xmlns:cc="http://creativecommons.org/ns#"
   xmlns:rdf="http://www.w3.org/1999/02/22-rdf-syntax-ns#"
   xmlns:svg="http://www.w3.org/2000/svg"
   xmlns="http://www.w3.org/2000/svg"
   xmlns:sodipodi="http://sodipodi.sourceforge.net/DTD/sodipodi-0.dtd"
   xmlns:inkscape="http://www.inkscape.org/namespaces/inkscape"
   version="1.1"
   id="svg914"
   width="1174"
   height="881"
   viewBox="0 0 1174 881"
   sodipodi:docname="pikfalse.png.svg"
   inkscape:version="1.0.1 (1.0.1+r74)">
  <metadata
     id="metadata920">
    <rdf:RDF>
      <cc:Work
         rdf:about="">
        <dc:format>image/svg+xml</dc:format>
        <dc:type
           rdf:resource="http://purl.org/dc/dcmitype/StillImage" />
        <dc:title></dc:title>
      </cc:Work>
    </rdf:RDF>
  </metadata>
  <defs
     id="defs918" />
  <sodipodi:namedview
     pagecolor="#ffffff"
     bordercolor="#666666"
     borderopacity="1"
     objecttolerance="10"
     gridtolerance="10"
     guidetolerance="10"
     inkscape:pageopacity="0"
     inkscape:pageshadow="2"
     inkscape:window-width="1920"
     inkscape:window-height="1019"
     id="namedview916"
     showgrid="false"
     inkscape:zoom="0.66537063"
     inkscape:cx="479.27918"
     inkscape:cy="502.4082"
     inkscape:window-x="0"
     inkscape:window-y="25"
     inkscape:window-maximized="1"
     inkscape:current-layer="g922" />
  <g
     inkscape:groupmode="layer"
     inkscape:label="Image"
     id="g922">
    <path
       style="fill:none;stroke:#000000;stroke-width:5.42958;stroke-linecap:butt;stroke-linejoin:miter;stroke-miterlimit:4;stroke-dasharray:none;stroke-opacity:1"
       d="m 767.2431,666.21188 c 0,0 -10.75625,92.38541 -70.86974,124.15911 -6.29762,9.4443 -60.58786,57.14224 -63.82217,52.25782 -3.23431,-4.88442 -2.38844,-6.2073 -2.38844,-6.2073 0,0 -5.03151,5.02203 -8.70768,-0.28911 -5.60461,0.63866 -6.97037,-4.28459 -6.97037,-4.28459 0,0 3.15899,-23.00446 11.20208,-31.21771 -2.33902,-2.23324 -5.42346,-1.81536 -5.42346,-1.81536 0,0 -79.88057,-20.02264 -95.66366,-16.69546 -15.78309,3.32718 -85.34777,5.85959 -89.54605,5.85959 -7.39324,7.13742 -46.56611,36.56705 -51.83687,37.01784 -5.27075,0.45079 -6.89068,-0.98851 -6.81555,-2.40911 -2.42421,2.69266 -4.81988,2.56371 -4.81988,2.56371 0,0 -2.32751,0.23342 -1.71554,-3.78301 -4.23492,-3.28367 -3.84963,-8.09748 -3.43636,-8.53209 0.41328,-0.43459 16.45875,-30.4447 23.71075,-38.35973 -6.89069,-6.52271 -30.06413,-28.71958 -32.54379,-37.23689 -2.47967,-8.51731 -7.03427,-24.38008 0.75704,-46.75628 7.79131,-22.3762 18.46205,-48.11112 18.46205,-48.11112 0,0 -40.0816,-57.97107 -30.78422,-109.65543 8.11912,-49.14537 28.91393,-72.94742 28.91393,-72.94742 0,0 -35.56247,-41.27316 -51.08453,-79.33616 2.79661,-13.03581 4.94482,-17.28049 4.94482,-17.28049 0,0 17.7908,-46.00764 17.49028,-61.22414 -0.30053,-15.2165 13.91999,-71.25239 17.63612,-75.86004 C 355.334,221.6865 284.43793,174.22503 269.17089,155.6327 253.90386,137.04036 180.14122,29.484001 181.35412,27.618837 c 1.2129,-1.865163 159.34214,52.14743 225.87093,154.404833 74.83832,-21.03048 126.70507,-21.84413 126.70507,-21.84413 0,0 43.78724,0.0197 91.70566,23.88024 139.239,-67.6654 147.8875,-65.40586 147.8875,-65.40586 0,0 40.54877,-22.859738 134.55888,-20.694738 4.9913,4.051018 3.56602,6.806918 -2.52834,13.396088 -6.09437,6.58915 -64.45723,70.63923 -117.10844,89.60455 -50.85564,21.58942 -104.84613,36.00467 -104.84613,36.00467 0,0 19.13929,41.36797 22.62883,80.31417 3.48955,38.94619 25.42636,168.12519 25.42636,168.12519 0,0 35.08036,153.00399 34.91287,156.6031 26.63968,-13.21628 30.359,-15.25737 30.359,-15.25737 l -22.3828,-47.87812 42.49995,-20.70539 -29.02551,-72.26114 64.90526,-26.4874 -90.76196,-138.11913 233.9758,-144.25654 73.55505,161.12347 -180.29267,62.34839 25.58473,85.16764 -66.36852,24.4168 20.12121,68.17837 -55.72681,22.90275 15.01695,41.77826 z"
       id="path1605" />
  </g>
</svg>
